<mxfile host="app.diagrams.net" modified="2023-09-28T17:16:59.515Z" agent="Mozilla/5.0 (X11; Linux x86_64; rv:109.0) Gecko/20100101 Firefox/115.0" etag="as-NjhNqOmq05pFoucYu" version="21.7.5" type="device">
  <diagram name="Page-1" id="8rsBeupqPq5HbvHfWnFI">
    <mxGraphModel dx="673" dy="419" grid="1" gridSize="10" guides="1" tooltips="1" connect="1" arrows="1" fold="1" page="1" pageScale="1" pageWidth="1200" pageHeight="1920" math="1" shadow="0">
      <root>
        <mxCell id="0" />
        <mxCell id="1" parent="0" />
        <mxCell id="6YPNB5nwMWMtcBoY5ooR-1" value="`x_1`" style="ellipse;whiteSpace=wrap;html=1;" vertex="1" parent="1">
          <mxGeometry x="479" y="350" width="40" height="40" as="geometry" />
        </mxCell>
        <mxCell id="6YPNB5nwMWMtcBoY5ooR-3" value="" style="endArrow=classic;html=1;rounded=0;entryX=0;entryY=0.5;entryDx=0;entryDy=0;" edge="1" parent="1" target="6YPNB5nwMWMtcBoY5ooR-15">
          <mxGeometry width="50" height="50" relative="1" as="geometry">
            <mxPoint x="520" y="370" as="sourcePoint" />
            <mxPoint x="600" y="365" as="targetPoint" />
          </mxGeometry>
        </mxCell>
        <mxCell id="6YPNB5nwMWMtcBoY5ooR-5" value="&lt;div&gt;`w_1`&lt;/div&gt;" style="text;html=1;strokeColor=none;fillColor=none;align=center;verticalAlign=middle;whiteSpace=wrap;rounded=0;" vertex="1" parent="1">
          <mxGeometry x="580" y="325" width="20" height="10" as="geometry" />
        </mxCell>
        <mxCell id="6YPNB5nwMWMtcBoY5ooR-11" value="`x_2`" style="ellipse;whiteSpace=wrap;html=1;" vertex="1" parent="1">
          <mxGeometry x="479" y="420" width="40" height="40" as="geometry" />
        </mxCell>
        <mxCell id="6YPNB5nwMWMtcBoY5ooR-14" value="" style="endArrow=classic;html=1;rounded=0;exitX=1;exitY=0.5;exitDx=0;exitDy=0;entryX=0;entryY=0.5;entryDx=0;entryDy=0;" edge="1" parent="1" target="6YPNB5nwMWMtcBoY5ooR-15">
          <mxGeometry width="50" height="50" relative="1" as="geometry">
            <mxPoint x="519" y="440" as="sourcePoint" />
            <mxPoint x="600" y="370" as="targetPoint" />
          </mxGeometry>
        </mxCell>
        <mxCell id="6YPNB5nwMWMtcBoY5ooR-15" value="`y_1`" style="ellipse;whiteSpace=wrap;html=1;" vertex="1" parent="1">
          <mxGeometry x="620" y="310" width="40" height="40" as="geometry" />
        </mxCell>
        <mxCell id="6YPNB5nwMWMtcBoY5ooR-18" value="`y_2`" style="ellipse;whiteSpace=wrap;html=1;" vertex="1" parent="1">
          <mxGeometry x="620" y="386" width="40" height="40" as="geometry" />
        </mxCell>
        <mxCell id="6YPNB5nwMWMtcBoY5ooR-19" value="`y_3`" style="ellipse;whiteSpace=wrap;html=1;" vertex="1" parent="1">
          <mxGeometry x="620" y="460" width="40" height="40" as="geometry" />
        </mxCell>
        <mxCell id="6YPNB5nwMWMtcBoY5ooR-22" value="" style="endArrow=classic;html=1;rounded=0;entryX=0;entryY=0.5;entryDx=0;entryDy=0;" edge="1" parent="1" target="6YPNB5nwMWMtcBoY5ooR-18">
          <mxGeometry width="50" height="50" relative="1" as="geometry">
            <mxPoint x="520" y="370" as="sourcePoint" />
            <mxPoint x="630" y="340" as="targetPoint" />
          </mxGeometry>
        </mxCell>
        <mxCell id="6YPNB5nwMWMtcBoY5ooR-23" value="" style="endArrow=classic;html=1;rounded=0;entryX=0;entryY=0.5;entryDx=0;entryDy=0;" edge="1" parent="1" target="6YPNB5nwMWMtcBoY5ooR-19">
          <mxGeometry width="50" height="50" relative="1" as="geometry">
            <mxPoint x="520" y="370" as="sourcePoint" />
            <mxPoint x="640" y="350" as="targetPoint" />
          </mxGeometry>
        </mxCell>
        <mxCell id="6YPNB5nwMWMtcBoY5ooR-24" value="" style="endArrow=classic;html=1;rounded=0;entryX=0;entryY=0.5;entryDx=0;entryDy=0;" edge="1" parent="1" target="6YPNB5nwMWMtcBoY5ooR-18">
          <mxGeometry width="50" height="50" relative="1" as="geometry">
            <mxPoint x="520" y="440" as="sourcePoint" />
            <mxPoint x="630" y="340" as="targetPoint" />
          </mxGeometry>
        </mxCell>
        <mxCell id="6YPNB5nwMWMtcBoY5ooR-25" value="" style="endArrow=classic;html=1;rounded=0;entryX=0;entryY=0.5;entryDx=0;entryDy=0;" edge="1" parent="1" target="6YPNB5nwMWMtcBoY5ooR-19">
          <mxGeometry width="50" height="50" relative="1" as="geometry">
            <mxPoint x="520" y="440" as="sourcePoint" />
            <mxPoint x="630" y="416" as="targetPoint" />
          </mxGeometry>
        </mxCell>
        <mxCell id="6YPNB5nwMWMtcBoY5ooR-27" value="&lt;div&gt;`w_2`&lt;/div&gt;" style="text;html=1;strokeColor=none;fillColor=none;align=center;verticalAlign=middle;whiteSpace=wrap;rounded=0;" vertex="1" parent="1">
          <mxGeometry x="600" y="350" width="20" height="10" as="geometry" />
        </mxCell>
        <mxCell id="6YPNB5nwMWMtcBoY5ooR-28" value="&lt;div&gt;`w_3`&lt;/div&gt;" style="text;html=1;strokeColor=none;fillColor=none;align=center;verticalAlign=middle;whiteSpace=wrap;rounded=0;" vertex="1" parent="1">
          <mxGeometry x="590" y="380" width="20" height="10" as="geometry" />
        </mxCell>
        <mxCell id="6YPNB5nwMWMtcBoY5ooR-29" value="&lt;div&gt;`w_4`&lt;/div&gt;" style="text;html=1;strokeColor=none;fillColor=none;align=center;verticalAlign=middle;whiteSpace=wrap;rounded=0;" vertex="1" parent="1">
          <mxGeometry x="590" y="420" width="20" height="10" as="geometry" />
        </mxCell>
        <mxCell id="6YPNB5nwMWMtcBoY5ooR-30" value="&lt;div&gt;`w_5`&lt;/div&gt;" style="text;html=1;strokeColor=none;fillColor=none;align=center;verticalAlign=middle;whiteSpace=wrap;rounded=0;" vertex="1" parent="1">
          <mxGeometry x="600" y="450" width="20" height="10" as="geometry" />
        </mxCell>
        <mxCell id="6YPNB5nwMWMtcBoY5ooR-31" value="&lt;div&gt;`w_6`&lt;/div&gt;" style="text;html=1;strokeColor=none;fillColor=none;align=center;verticalAlign=middle;whiteSpace=wrap;rounded=0;" vertex="1" parent="1">
          <mxGeometry x="580" y="475" width="20" height="10" as="geometry" />
        </mxCell>
        <mxCell id="6YPNB5nwMWMtcBoY5ooR-34" value="&lt;div&gt;`w_1`&lt;/div&gt;" style="text;html=1;strokeColor=none;fillColor=none;align=center;verticalAlign=middle;whiteSpace=wrap;rounded=0;" vertex="1" parent="1">
          <mxGeometry x="553" y="527.5" width="20" height="10" as="geometry" />
        </mxCell>
        <mxCell id="6YPNB5nwMWMtcBoY5ooR-35" value="&lt;div&gt;`w_3`&lt;/div&gt;" style="text;html=1;strokeColor=none;fillColor=none;align=center;verticalAlign=middle;whiteSpace=wrap;rounded=0;" vertex="1" parent="1">
          <mxGeometry x="583" y="527.5" width="20" height="10" as="geometry" />
        </mxCell>
        <mxCell id="6YPNB5nwMWMtcBoY5ooR-36" value="&lt;div&gt;`w_5`&lt;/div&gt;" style="text;html=1;strokeColor=none;fillColor=none;align=center;verticalAlign=middle;whiteSpace=wrap;rounded=0;" vertex="1" parent="1">
          <mxGeometry x="613" y="527.5" width="20" height="10" as="geometry" />
        </mxCell>
        <mxCell id="6YPNB5nwMWMtcBoY5ooR-37" value="&lt;div&gt;`w_2`&lt;/div&gt;" style="text;html=1;strokeColor=none;fillColor=none;align=center;verticalAlign=middle;whiteSpace=wrap;rounded=0;" vertex="1" parent="1">
          <mxGeometry x="553" y="552.5" width="20" height="10" as="geometry" />
        </mxCell>
        <mxCell id="6YPNB5nwMWMtcBoY5ooR-38" value="&lt;div&gt;`w_4`&lt;/div&gt;" style="text;html=1;strokeColor=none;fillColor=none;align=center;verticalAlign=middle;whiteSpace=wrap;rounded=0;" vertex="1" parent="1">
          <mxGeometry x="583" y="552.5" width="20" height="10" as="geometry" />
        </mxCell>
        <mxCell id="6YPNB5nwMWMtcBoY5ooR-39" value="&lt;div&gt;`w_6`&lt;/div&gt;" style="text;html=1;strokeColor=none;fillColor=none;align=center;verticalAlign=middle;whiteSpace=wrap;rounded=0;" vertex="1" parent="1">
          <mxGeometry x="613" y="552.5" width="20" height="10" as="geometry" />
        </mxCell>
        <mxCell id="6YPNB5nwMWMtcBoY5ooR-40" value="&lt;div style=&quot;font-size: 13px;&quot;&gt;&lt;font style=&quot;font-size: 30px;&quot;&gt;`(`&lt;/font&gt;&lt;/div&gt;" style="text;html=1;strokeColor=none;fillColor=none;align=center;verticalAlign=middle;whiteSpace=wrap;rounded=0;" vertex="1" parent="1">
          <mxGeometry x="543" y="520" width="10" height="55" as="geometry" />
        </mxCell>
        <mxCell id="6YPNB5nwMWMtcBoY5ooR-42" value="&lt;div style=&quot;font-size: 13px;&quot;&gt;&lt;font style=&quot;font-size: 30px;&quot;&gt;`)`&lt;/font&gt;&lt;/div&gt;" style="text;html=1;strokeColor=none;fillColor=none;align=center;verticalAlign=middle;whiteSpace=wrap;rounded=0;" vertex="1" parent="1">
          <mxGeometry x="633" y="520" width="10" height="55" as="geometry" />
        </mxCell>
        <mxCell id="6YPNB5nwMWMtcBoY5ooR-43" value="&lt;div style=&quot;font-size: 13px;&quot;&gt;&lt;font style=&quot;font-size: 15px;&quot;&gt;`\mathbf{X}`&lt;/font&gt;&lt;/div&gt;" style="text;html=1;strokeColor=none;fillColor=none;align=center;verticalAlign=middle;whiteSpace=wrap;rounded=0;" vertex="1" parent="1">
          <mxGeometry x="513" y="609" width="40" height="30" as="geometry" />
        </mxCell>
        <mxCell id="6YPNB5nwMWMtcBoY5ooR-46" value="&lt;div style=&quot;font-size: 13px;&quot;&gt;&lt;font style=&quot;font-size: 15px;&quot;&gt;`\mathbf{W} =`&lt;/font&gt;&lt;/div&gt;" style="text;html=1;strokeColor=none;fillColor=none;align=center;verticalAlign=middle;whiteSpace=wrap;rounded=0;" vertex="1" parent="1">
          <mxGeometry x="558" y="609" width="40" height="30" as="geometry" />
        </mxCell>
        <mxCell id="6YPNB5nwMWMtcBoY5ooR-47" value="&lt;div style=&quot;font-size: 13px;&quot;&gt;&lt;font style=&quot;font-size: 15px;&quot;&gt;`\mathbf{W} =`&lt;/font&gt;&lt;/div&gt;" style="text;html=1;strokeColor=none;fillColor=none;align=center;verticalAlign=middle;whiteSpace=wrap;rounded=0;" vertex="1" parent="1">
          <mxGeometry x="500" y="532.5" width="40" height="30" as="geometry" />
        </mxCell>
        <mxCell id="6YPNB5nwMWMtcBoY5ooR-48" value="&lt;div style=&quot;font-size: 13px;&quot;&gt;&lt;font style=&quot;font-size: 15px;&quot;&gt;`\mathbf{Y}`&lt;/font&gt;&lt;/div&gt;" style="text;html=1;strokeColor=none;fillColor=none;align=center;verticalAlign=middle;whiteSpace=wrap;rounded=0;" vertex="1" parent="1">
          <mxGeometry x="598" y="609" width="40" height="30" as="geometry" />
        </mxCell>
        <mxCell id="6YPNB5nwMWMtcBoY5ooR-50" value="&lt;div&gt;`2\times3`&lt;/div&gt;" style="text;html=1;strokeColor=none;fillColor=none;align=center;verticalAlign=middle;whiteSpace=wrap;rounded=0;" vertex="1" parent="1">
          <mxGeometry x="558" y="639" width="20" height="10" as="geometry" />
        </mxCell>
        <mxCell id="6YPNB5nwMWMtcBoY5ooR-51" value="&lt;div&gt;`2`&lt;/div&gt;" style="text;html=1;strokeColor=none;fillColor=none;align=center;verticalAlign=middle;whiteSpace=wrap;rounded=0;" vertex="1" parent="1">
          <mxGeometry x="523" y="639" width="20" height="10" as="geometry" />
        </mxCell>
        <mxCell id="6YPNB5nwMWMtcBoY5ooR-52" value="&lt;div&gt;`3`&lt;/div&gt;" style="text;html=1;strokeColor=none;fillColor=none;align=center;verticalAlign=middle;whiteSpace=wrap;rounded=0;" vertex="1" parent="1">
          <mxGeometry x="608" y="639" width="20" height="10" as="geometry" />
        </mxCell>
      </root>
    </mxGraphModel>
  </diagram>
</mxfile>
